<svg xmlns="http://www.w3.org/2000/svg" xmlns:xlink="http://www.w3.org/1999/xlink" id="Layer_1" x="0" y="0" version="1.1" viewBox="0 0 214.7 173.5" xml:space="preserve" style="enable-background:new 0 0 214.7 173.5"><style type="text/css">.st0{fill:#00188f}</style><g><g id="shape28-2"><title>Sheet.28</title><path d="M211.8,2.9c-1.7-1.7-4-2.9-5.7-2.9c-0.6,0-1.1,0-1.7,0H9.2C4,0,0,5.2,0,10.9v151.7c0,6.3,4,10.9,9.2,10.9 h196.4c5.2,0,9.2-5.2,9.2-10.9V14.3C214.7,18.3,215.3,6.3,211.8,2.9z M74.4,145.4c-0.6,1.1-1.1,2.9-1.1,4H56.1V28.1 c0-3.4,2.9-6.3,6.3-6.3h49.8c3.4,0,6.3,2.9,6.3,6.3v50.4c-2.3,0-4,1.7-5.2,3.4L91,118.5H65.3v6.3H87l-3.4,6.3H65.3v6.3h14.3 L74.4,145.4z M154.6,148.9h-71c-2.9,0-4-2.3-2.9-4.6l35.5-59c1.7-2.9,4-2.9,5.7,0l35.5,59C159.2,147.1,158,148.9,154.6,148.9z" class="st0"/></g><rect width="43.5" height="6.3" x="65.3" y="40.6" class="st0"/><polygon points="134 124.8 131.1 124.8 121.4 124.8 121.4 118.5 127.7 118.5 127.7 108.8 112.2 108.8 112.2 118.5 118.5 118.5 118.5 124.8 108.8 124.8 105.9 124.8 105.9 134 99.6 134 99.6 143.1 115.1 143.1 115.1 134 108.8 134 108.8 127.7 118.5 127.7 121.4 127.7 131.1 127.7 131.1 134 124.8 134 124.8 143.1 140.3 143.1 140.3 134 134 134" class="st0"/></g></svg>