<svg xmlns="http://www.w3.org/2000/svg" xmlns:xlink="http://www.w3.org/1999/xlink" id="Layer_1" x="0" y="0" version="1.1" viewBox="0 0 80 80" xml:space="preserve" style="enable-background:new 0 0 80 80"><style type="text/css">.st0{fill:#59b4d9}.st1{fill:#0399c6}.st2{fill:#804998}.st3,.st4,.st5{opacity:.15;fill:#fff;enable-background:new}.st4,.st5{opacity:.2;fill:#00188f}.st5{fill:#1e1e1e}</style><g><ellipse cx="25.2" cy="7.8" class="st0" rx="20.1" ry="7.4"/><path d="M33.3,45.9c-2.6,0.4-5.4,0.6-8.1,0.6c-7.6,0-15.5-1.6-20.1-5c0,3.8,0,7.4,0,8.4c0,4.4,9,8,20.1,8 c2.9,0,5.6-0.2,8.1-0.7V45.9z" class="st1"/><path d="M33.3,31.2c-2.6,0.4-5.4,0.6-8.1,0.6c-7.6,0-15.5-1.6-20.1-5c0,4.2,0,7.2,0,11.1c3.2,3.9,11.9,6,20.1,6 c2.7,0,5.5-0.2,8.1-0.7V31.2z" class="st1"/><path d="M45.4,20.8c0-6.4,0-8.3,0-8.3h0c-4.1,3.5-12.1,5.4-20.1,5.4S9.2,16,5.1,12.5h0c0,0,0,2.3,0,10.7 c3.2,3.9,11.9,6,20.1,6c2.7,0,5.5-0.2,8.1-0.7C33.6,24.5,38.7,22,45.4,20.8z" class="st1"/><path d="M34.6,59.5c3.2,3.9,11.9,6,20.1,6s16.9-2.1,20.1-6c0-3.8,0-6.8,0-11.1c-4.6,3.4-12.6,5-20.1,5 s-15.5-1.6-20.1-5C34.6,52.7,34.6,55.6,34.6,59.5z" class="st2"/><path d="M54.8,68.1c-7.6,0-15.5-1.6-20.1-5c0,3.8,0,7.4,0,8.4c0,4.4,9,8,20.1,8s20.1-3.6,20.1-8c0-0.8,0-4.4,0-8.4 C70.3,66.5,62.3,68.1,54.8,68.1z" class="st2"/><ellipse cx="54.8" cy="29.4" class="st2" rx="20.1" ry="7.4"/><ellipse cx="54.8" cy="29.4" class="st3" rx="20.1" ry="7.4"/><path d="M34.6,44.8c3.2,3.9,11.9,6,20.1,6s16.9-2.1,20.1-6c0-8.4,0-10.7,0-10.7h0c-4.1,3.5-12.1,5.4-20.1,5.4 s-16-1.8-20.1-5.4h0C34.6,34.1,34.6,36.4,34.6,44.8z" class="st2"/><path d="M24.7,46.5v11.4c0.2,0,0.4,0,0.5,0c2.9,0,5.6-0.2,8.1-0.7V45.9c-2.6,0.4-5.4,0.6-8.1,0.6 C25.1,46.5,24.9,46.5,24.7,46.5z" class="st4"/><path d="M24.7,31.8v12c0.2,0,0.4,0,0.5,0c2.7,0,5.5-0.2,8.1-0.7v-12c-2.6,0.4-5.4,0.6-8.1,0.6 C25.1,31.8,24.9,31.8,24.7,31.8z" class="st4"/><path d="M25.2,17.8c-0.2,0-0.4,0-0.5,0v11.3c0.2,0,0.4,0,0.5,0c2.7,0,5.5-0.2,8.1-0.7c0.2-4,5.4-6.5,12-7.6 c0-6.4,0-8.3,0-8.3h0C41.3,16,33.2,17.8,25.2,17.8z" class="st4"/><path d="M54.2,68.1v11.4c0.2,0,0.4,0,0.5,0c11.1,0,20.1-3.6,20.1-8c0-0.8,0-4.4,0-8.4c-4.6,3.4-12.6,5-20.1,5 C54.6,68.1,54.4,68.1,54.2,68.1z" class="st5"/><path d="M54.2,53.4v12c0.2,0,0.4,0,0.5,0c8.3,0,16.9-2.1,20.1-6c0-3.8,0-6.8,0-11.1c-4.6,3.4-12.6,5-20.1,5 C54.6,53.4,54.4,53.4,54.2,53.4z" class="st5"/><path d="M54.8,39.5c-0.2,0-0.4,0-0.5,0v11.3c0.2,0,0.4,0,0.5,0c8.3,0,16.9-2.1,20.1-6c0-8.4,0-10.7,0-10.7h0 C70.8,37.6,62.8,39.5,54.8,39.5z" class="st5"/></g></svg>