<svg xmlns="http://www.w3.org/2000/svg" xmlns:xlink="http://www.w3.org/1999/xlink" id="Layer_1" x="0" y="0" enable-background="new 0 0 792 612" version="1.0" viewBox="0 0 792 612" xml:space="preserve"><g id="Layer_1_1_"><g id="File_x2C__general"><title>Sheet.1071</title></g></g><g id="Gateway"><path fill="#2A3282" d="M396.1,117.1c-104.7,0-188.8,85-188.8,188.8s84.1,188.8,188.8,188.8S585,409.8,585,305.9 S500.9,117.1,396.1,117.1z M379,202.9v-60.1h34.3v60.1h17.2l-34.3,69.5l-34.3-69.5H379z M301.7,340.2l-69.5-34.3l69.5-34.3v17.2 h60.1v34.3h-60.1V340.2z M413.3,400.3v60.1H379v-60.1h-17.2l34.3-69.5l34.3,69.5H413.3z M490.6,340.2v-17.2h-60.1v-34.3h60.1v-17.2 l69.5,34.3L490.6,340.2z"/></g></svg>