<svg xmlns="http://www.w3.org/2000/svg" id="Layer_1" data-name="Layer 1" viewBox="0 0 300 300"><defs><style>.cls-1{fill:#00a5f1}.cls-2{fill:#fff}.cls-3{fill:#ffb800}.cls-4{fill:#71bc00}.cls-5{fill:#ff430f}.cls-6,.cls-7{fill:#4c4c4c}.cls-7{font-size:8px;font-family:SegoeUI,Segoe UI}.cls-8{letter-spacing:.04em}.cls-9{letter-spacing:-.02em}.cls-10{letter-spacing:.02em}.cls-11{letter-spacing:-.01em}.cls-12{letter-spacing:0}.cls-13{letter-spacing:-.03em}.cls-14{letter-spacing:.03em}.cls-15{fill:none;stroke:#4c4c4c;stroke-miterlimit:10}</style></defs><title>MS_AAC_PUZZLEArtboard 1</title><path d="M145.91,230.35a5.61,5.61,0,0,0-.29-5.61,1.87,1.87,0,0,1,0-1.86h0a1.86,1.86,0,0,1,2.45-.73A138.77,138.77,0,0,0,171,231a138.77,138.77,0,0,1,8.81-22.9,1.86,1.86,0,0,0-.73-2.45h0a1.87,1.87,0,0,0-1.86,0,5.61,5.61,0,0,1-5.61.29c-2.85-1.64-4.1-4.9-1.2-9.93,2.21-3.83,6.33-5.59,9.2-3.93a5.61,5.61,0,0,1,2.55,5,1.87,1.87,0,0,0,.92,1.62h0a1.86,1.86,0,0,0,2.49-.6A138.77,138.77,0,0,1,201,179a138.77,138.77,0,0,0-19.08-15.42,1.86,1.86,0,0,1-.6-2.49h0a1.87,1.87,0,0,1,1.62-.92,5.61,5.61,0,0,0,5-2.55c1.66-2.87-.1-7-3.93-9.2-5-2.9-8.28-1.65-9.93,1.2a5.61,5.61,0,0,0,.29,5.61,1.87,1.87,0,0,1,0,1.86h0a1.86,1.86,0,0,1-2.45.73A138.77,138.77,0,0,0,149,149a138.77,138.77,0,0,1-8.81,22.9,1.86,1.86,0,0,0,.73,2.45h0a1.87,1.87,0,0,0,1.86,0,5.61,5.61,0,0,1,5.61-.29c2.85,1.64,4.1,4.9,1.2,9.93-2.21,3.83-6.33,5.59-9.2,3.93a5.61,5.61,0,0,1-2.55-5,1.87,1.87,0,0,0-.92-1.62h0a1.86,1.86,0,0,0-2.49.6A138.77,138.77,0,0,1,119,201a138.78,138.78,0,0,0,19.08,15.42,1.86,1.86,0,0,1,.6,2.49h0a1.87,1.87,0,0,1-1.62.92,5.61,5.61,0,0,0-5,2.55c-1.66,2.87.1,7,3.93,9.2C141,234.45,144.26,233.2,145.91,230.35Z" class="cls-1"/><path d="M174.63,164h-1.72v0l-16,0a.75.75,0,0,0-.75.75v22.42a.75.75,0,0,0,.68.81h17.77a.75.75,0,0,0,.75-.75v-22.5A.75.75,0,0,0,174.63,164Zm-9.55,17-3.75,4.8-2.3-2.58-.19-.24a.14.14,0,0,1,0-.2l.62-.58s0,0,.1,0,.1,0,.1,0l1.68,1.82,2.88-3.75a.15.15,0,0,1,.1,0s0,0,.1,0l.68.53s0,0,0,.1S165.13,181,165.08,181Zm0-7.16-3.75,4.8L159,176l-.19-.24a.14.14,0,0,1,0-.2l.62-.58s0,0,.1,0,.1,0,.1,0l1.68,1.82,2.88-3.75a.15.15,0,0,1,.1,0s0,0,.1,0l.68.53s0,0,0,.1S165.13,173.81,165.08,173.81Zm0-6.53-3.75,4.8L159,169.5l-.19-.24a.14.14,0,0,1,0-.2l.62-.58s0,0,.1,0,.1,0,.1,0l1.68,1.82,2.88-3.75a.15.15,0,0,1,.1,0s0,0,.1,0l.68.53s0,0,0,.1S165.13,167.28,165.08,167.28Zm7.24,17.09h-6.38v-1.25h6.38Zm0-7h-6.38v-1.24h6.38Zm0-6.68h-6.38v-1.24h6.38Z" class="cls-2"/><path d="M230.35,152.09a5.61,5.61,0,0,0-5.61.29,1.87,1.87,0,0,1-1.86,0h0a1.86,1.86,0,0,1-.73-2.45A138.77,138.77,0,0,0,231,127a138.77,138.77,0,0,1-22.9-8.81,1.86,1.86,0,0,0-2.45.73h0a1.87,1.87,0,0,0,0,1.86,5.61,5.61,0,0,1,.29,5.61c-1.64,2.85-4.9,4.1-9.93,1.2-3.83-2.21-5.59-6.33-3.93-9.2a5.61,5.61,0,0,1,5-2.55,1.87,1.87,0,0,0,1.62-.92h0a1.86,1.86,0,0,0-.6-2.49A138.77,138.77,0,0,1,179,97a138.77,138.77,0,0,0-15.42,19.08,1.86,1.86,0,0,1-2.49.6h0a1.87,1.87,0,0,1-.92-1.62,5.61,5.61,0,0,0-2.55-5c-2.87-1.66-7,.1-9.2,3.93-2.9,5-1.65,8.28,1.2,9.93a5.61,5.61,0,0,0,5.61-.29,1.87,1.87,0,0,1,1.86,0h0a1.86,1.86,0,0,1,.73,2.45A138.77,138.77,0,0,0,149,149a138.77,138.77,0,0,1,22.9,8.81,1.86,1.86,0,0,0,2.45-.73h0a1.87,1.87,0,0,0,0-1.86,5.61,5.61,0,0,1-.29-5.61c1.64-2.85,4.9-4.1,9.93-1.2,3.83,2.21,5.59,6.33,3.93,9.2a5.61,5.61,0,0,1-5,2.55,1.87,1.87,0,0,0-1.62.92h0a1.86,1.86,0,0,0,.6,2.49A138.77,138.77,0,0,1,201,179a138.78,138.78,0,0,0,15.42-19.08,1.86,1.86,0,0,1,2.49-.6h0a1.87,1.87,0,0,1,.92,1.62,5.61,5.61,0,0,0,2.55,5c2.87,1.66,7-.1,9.2-3.93C234.45,157,233.2,153.74,230.35,152.09Z" class="cls-3"/><path d="M123.95,148.39a5.61,5.61,0,0,0-.29-5.61,1.87,1.87,0,0,1,0-1.86h0a1.86,1.86,0,0,1,2.45-.73A138.77,138.77,0,0,0,149,149a138.77,138.77,0,0,1,8.81-22.9,1.86,1.86,0,0,0-.73-2.45h0a1.87,1.87,0,0,0-1.86,0,5.61,5.61,0,0,1-5.61.29c-2.85-1.64-4.1-4.9-1.2-9.93,2.21-3.83,6.33-5.59,9.2-3.93a5.61,5.61,0,0,1,2.55,5,1.87,1.87,0,0,0,.92,1.62h0a1.86,1.86,0,0,0,2.49-.6A138.77,138.77,0,0,1,179,97a138.77,138.77,0,0,0-19.08-15.42,1.86,1.86,0,0,1-.6-2.49h0a1.87,1.87,0,0,1,1.62-.92,5.61,5.61,0,0,0,5-2.55c1.66-2.87-.1-7-3.93-9.2-5-2.9-8.28-1.65-9.93,1.2a5.61,5.61,0,0,0,.29,5.61,1.87,1.87,0,0,1,0,1.86h0a1.86,1.86,0,0,1-2.45.73A138.77,138.77,0,0,0,127,67a138.77,138.77,0,0,1-8.81,22.9,1.86,1.86,0,0,0,.73,2.45h0a1.87,1.87,0,0,0,1.86,0,5.61,5.61,0,0,1,5.61-.29c2.85,1.64,4.1,4.9,1.2,9.93-2.21,3.83-6.33,5.59-9.2,3.93a5.61,5.61,0,0,1-2.55-5,1.87,1.87,0,0,0-.92-1.62h0a1.86,1.86,0,0,0-2.49.6A138.77,138.77,0,0,1,97,119a138.78,138.78,0,0,0,19.08,15.42,1.86,1.86,0,0,1,.6,2.49h0a1.87,1.87,0,0,1-1.62.92,5.61,5.61,0,0,0-5,2.55c-1.66,2.87.1,7,3.93,9.2C119,152.49,122.3,151.24,123.95,148.39Z" class="cls-4"/><path d="M148.39,174.05a5.61,5.61,0,0,0-5.61.29,1.87,1.87,0,0,1-1.86,0h0a1.86,1.86,0,0,1-.73-2.45A138.77,138.77,0,0,0,149,149a138.77,138.77,0,0,1-22.9-8.81,1.86,1.86,0,0,0-2.45.73h0a1.87,1.87,0,0,0,0,1.86,5.61,5.61,0,0,1,.29,5.61c-1.64,2.85-4.9,4.1-9.93,1.2-3.83-2.21-5.59-6.33-3.93-9.2a5.61,5.61,0,0,1,5-2.55,1.87,1.87,0,0,0,1.62-.92h0a1.86,1.86,0,0,0-.6-2.49A138.77,138.77,0,0,1,97,119a138.77,138.77,0,0,0-15.42,19.08,1.86,1.86,0,0,1-2.49.6h0a1.87,1.87,0,0,1-.92-1.62,5.61,5.61,0,0,0-2.55-5c-2.87-1.66-7,.1-9.2,3.93-2.9,5-1.65,8.28,1.2,9.93a5.61,5.61,0,0,0,5.61-.29,1.87,1.87,0,0,1,1.86,0h0a1.86,1.86,0,0,1,.73,2.45A138.77,138.77,0,0,0,67,171a138.77,138.77,0,0,1,22.9,8.81,1.86,1.86,0,0,0,2.45-.73h0a1.87,1.87,0,0,0,0-1.86,5.61,5.61,0,0,1-.29-5.61c1.64-2.85,4.9-4.1,9.93-1.2,3.83,2.21,5.59,6.33,3.93,9.2a5.61,5.61,0,0,1-5,2.55,1.87,1.87,0,0,0-1.62.92h0a1.86,1.86,0,0,0,.6,2.49A138.77,138.77,0,0,1,119,201a138.78,138.78,0,0,0,15.42-19.08,1.86,1.86,0,0,1,2.49-.6h0a1.87,1.87,0,0,1,.92,1.62,5.61,5.61,0,0,0,2.55,5c2.87,1.66,7-.1,9.2-3.93C152.49,179,151.24,175.7,148.39,174.05Z" class="cls-5"/><path d="M141.88,120.05h-10.2a10.2,10.2,0,0,0-.6-1.12,5.08,5.08,0,0,0-.77-1,5.83,5.83,0,0,0-2-1.31,5.94,5.94,0,0,0-2.25-.44,6.16,6.16,0,0,0-2.28.44,5.73,5.73,0,0,0-2,1.31,5.82,5.82,0,0,0-1.31,2,5.93,5.93,0,0,0-.44,2.25,6.15,6.15,0,0,0,.44,2.28,5.73,5.73,0,0,0,1.31,2,5.82,5.82,0,0,0,2,1.31,5.93,5.93,0,0,0,2.25.44,6.16,6.16,0,0,0,2.28-.44,5.73,5.73,0,0,0,2-1.31,6.13,6.13,0,0,0,1.17-1.64,5.77,5.77,0,0,0,.53-2l.67-.67,1.89,1.89,1.89-1.89,1.89,1.89,1.89-1.89,1.89,1.89,1.89-1.89-2.16-2.16Zm-19.16.93a1.43,1.43,0,0,1,.5-.09,1.13,1.13,0,0,1,.5.09,1.25,1.25,0,0,1,.44.29,1.35,1.35,0,0,1,.29.44,1.42,1.42,0,0,1,.09.5,1.13,1.13,0,0,1-.09.5,1.25,1.25,0,0,1-.29.44,1.34,1.34,0,0,1-.44.29,1.42,1.42,0,0,1-.5.09,1.13,1.13,0,0,1-.5-.09,1.25,1.25,0,0,1-.44-.29,1.34,1.34,0,0,1-.29-.44,1.42,1.42,0,0,1-.09-.5,1.13,1.13,0,0,1,.09-.5,1.25,1.25,0,0,1,.29-.44,1.35,1.35,0,0,1,.44-.29Z" class="cls-2"/><path d="M130,166.64a2.17,2.17,0,0,0-1.8,1l-4.65-2a2.35,2.35,0,0,0,0-1.24l5.59-2.4a1.2,1.2,0,1,0-.33-.83v.07l-5.59,2.4a2.47,2.47,0,0,0-2.56-1.2L119,157.31a1.8,1.8,0,1,0-.93.27h.14l1.61,5.07a2.54,2.54,0,0,0-1.34,2.9l-4.41,1.85a1.25,1.25,0,1,0,.33.84v-.07l4.41-1.85a2.5,2.5,0,0,0,2.61,1.2l2.35,7a1.88,1.88,0,1,0,1-.28h-.19l-2.35-7a2.59,2.59,0,0,0,1-.89l4.65,2a2.18,2.18,0,1,0,2.12-1.72Z" class="cls-2"/><path d="M177,128.18a5,5,0,0,0,4.93-5h0a5,5,0,0,0-5-4.93h0a5,5,0,1,0,.09,9.94Z" class="cls-2"/><polygon points="180.64 129.79 177 134.83 173.37 129.79 168.12 129.79 168.12 142.24 185.88 142.24 185.88 129.79 180.64 129.79" class="cls-2"/><circle cx="203.98" cy="144" r="2" class="cls-6"/><circle cx="144" cy="94.02" r="2" class="cls-6"/><circle cx="94.02" cy="94.02" r="2" class="cls-6"/><circle cx="203.98" cy="94.02" r="2" class="cls-6"/><circle cx="203.98" cy="203.98" r="2" class="cls-6"/><circle cx="94.02" cy="154" r="2" class="cls-6"/><circle cx="154" cy="203.98" r="2" class="cls-6"/><circle cx="94.02" cy="203.98" r="2" class="cls-6"/><text class="cls-7" transform="translate(52.21 96.02)">Enc<tspan x="12.27" y="0" class="cls-8">r</tspan><tspan x="15.37" y="0">yption</tspan></text><text class="cls-7" transform="translate(29.31 205.98)">S<tspan x="4.25" y="0" class="cls-9">o</tspan><tspan x="8.79" y="0" class="cls-10">f</tspan><tspan x="11.44" y="0">twa</tspan><tspan x="24" y="0" class="cls-11">r</tspan><tspan x="26.68" y="0">e Defined</tspan><tspan x="27.23" y="9.6">Net</tspan><tspan x="40.11" y="9.6" class="cls-12">w</tspan><tspan x="45.87" y="9.6">orks</tspan></text><text class="cls-7" transform="translate(207.98 96.02)">Identity</text><text class="cls-7" transform="translate(207.98 205.98)">Compliance, Logs,<tspan x="0" y="9.6">and </tspan><tspan x="15.5" y="9.6" class="cls-13">R</tspan><tspan x="20.06" y="9.6">epo</tspan><tspan x="33.64" y="9.6" class="cls-14">r</tspan><tspan x="36.65" y="9.6">ting</tspan></text><line x1="94.02" x2="144" y1="94.02" y2="94.02" class="cls-15"/><line x1="203.98" x2="203.98" y1="144" y2="94.02" class="cls-15"/><line x1="203.98" x2="154" y1="203.98" y2="203.98" class="cls-15"/><line x1="94.02" x2="94.02" y1="154" y2="203.98" class="cls-15"/></svg>