<svg xmlns="http://www.w3.org/2000/svg" xmlns:svg="http://www.w3.org/2000/svg" id="svg5576" width="64" height="64" version="1.1" viewBox="0 0 64 64"><title id="title6774">Availability</title><metadata id="metadata5581"/><g id="layer1" transform="translate(0,-988.36216)"><g id="g6853" transform="matrix(0.29726672,0,0,0.29726672,-5.2198836,745.57175)"><path id="path6787" d="m 112.7168,894.71094 c -35.515284,0 -64.433597,28.91831 -64.433597,64.43359 0,35.51528 28.918313,64.43557 64.433597,64.43557 35.51528,0 64.43554,-28.92029 64.43554,-64.43557 0,-35.51528 -28.92026,-64.43359 -64.43554,-64.43359 z m 0,12 c 29.03,0 52.43554,23.40359 52.43554,52.43359 0,29.03 -23.40554,52.43557 -52.43554,52.43557 -29.030002,0 -52.433597,-23.40557 -52.433597,-52.43557 0,-29.03 23.403595,-52.43359 52.433597,-52.43359 z" style="color:#000;font-style:normal;font-variant:normal;font-weight:400;font-stretch:normal;font-size:medium;line-height:normal;font-family:sans-serif;text-indent:0;text-align:start;text-decoration:none;text-decoration-line:none;text-decoration-style:solid;text-decoration-color:#000;letter-spacing:normal;word-spacing:normal;text-transform:none;direction:ltr;block-progression:tb;writing-mode:lr-tb;baseline-shift:baseline;text-anchor:start;white-space:normal;clip-rule:nonzero;display:inline;overflow:visible;visibility:visible;opacity:1;isolation:auto;mix-blend-mode:normal;color-interpolation:sRGB;color-interpolation-filters:linearRGB;solid-color:#000;solid-opacity:1;fill:#000;fill-opacity:1;fill-rule:nonzero;stroke:none;stroke-width:12;stroke-linecap:butt;stroke-linejoin:miter;stroke-miterlimit:4;stroke-dasharray:none;stroke-dashoffset:0;stroke-opacity:1;color-rendering:auto;image-rendering:auto;shape-rendering:auto;text-rendering:auto;enable-background:accumulate"/><path id="path6791" d="m 113.7168,124.16016 -11.99805,0.24609 c -1.67249,9.61335 0.78516,50.16211 0.78516,50.16211 l 38.28515,15.19726 4.42774,-11.15234 -30.63086,-12.16016 z" transform="translate(0,796.36216)" style="color:#000;font-style:normal;font-variant:normal;font-weight:400;font-stretch:normal;font-size:medium;line-height:normal;font-family:sans-serif;text-indent:0;text-align:start;text-decoration:none;text-decoration-line:none;text-decoration-style:solid;text-decoration-color:#000;letter-spacing:normal;word-spacing:normal;text-transform:none;direction:ltr;block-progression:tb;writing-mode:lr-tb;baseline-shift:baseline;text-anchor:start;white-space:normal;clip-rule:nonzero;display:inline;overflow:visible;visibility:visible;opacity:1;isolation:auto;mix-blend-mode:normal;color-interpolation:sRGB;color-interpolation-filters:linearRGB;solid-color:#000;solid-opacity:1;fill:#000;fill-opacity:1;fill-rule:evenodd;stroke:none;stroke-width:12;stroke-linecap:butt;stroke-linejoin:miter;stroke-miterlimit:4;stroke-dasharray:none;stroke-dashoffset:0;stroke-opacity:1;color-rendering:auto;image-rendering:auto;shape-rendering:auto;text-rendering:auto;enable-background:accumulate"/><path id="path6818" d="m 165.5,825.20005 -18.31445,25.72266 -18.31641,25.72265 23.63086,0 0,21.42774 a 58.434784,58.434784 0 0 1 26,29.08008 l 0,-50.50782 23.63086,0 L 183.81445,850.92271 165.5,825.20005 Z" style="fill:#779f1b;fill-opacity:1;stroke:none;stroke-width:12;stroke-miterlimit:4;stroke-dasharray:none;stroke-opacity:1"/></g></g></svg>