<svg xmlns="http://www.w3.org/2000/svg" xmlns:xlink="http://www.w3.org/1999/xlink" x="0" y="0" version="1.1" viewBox="0 0 340.3 114.5" xml:space="preserve" style="enable-background:new 0 0 340.3 114.5"><style type="text/css">.st0{fill:#fff}.st1{stroke:#000;stroke-width:.75;stroke-linecap:round;stroke-linejoin:round;stroke-miterlimit:3}.st1,.st2{fill:none}.st3{font-family:&apos;SegoeUI&apos;}.st4{font-size:10px}.st5{font-size:10.4999px}.st6,.st7{fill:#0070c0;stroke:#0070c0;stroke-width:.75;stroke-linecap:round;stroke-linejoin:round;stroke-miterlimit:3}.st7{fill:#00b050;stroke:#00b050}.st8{font-family:&apos;SegoeUI-Italic&apos;}.st9{font-size:8px}</style><g id="Layer_2"><rect width="340.3" height="114.5" class="st0"/></g><g xmlns:ev="http://www.w3.org/2001/xml-events" id="Layer_1"><g><title>CI/CD (2)</title><g id="group24-1" transform="translate(18,-515.5)"><title>Sheet.24</title><g id="shape1-2" transform="translate(49.5,-60.5)"><title>Sheet.1</title><path d="M-18,630h290.1" class="st1"/></g><g id="shape3-5" transform="translate(80.4,-20)"><title>Sheet.3</title><path d="M-18,630h73.1" class="st1"/></g><g id="shape8-8" transform="translate(58.5,-20)"><title>Sheet.8</title><path d="M-18,589.5c7.5,0,13.5,10.1,13.5,22.5c0,9.9,3.8,18,8.4,18l0,0" class="st1"/></g><g id="shape9-11" transform="translate(175.5,-20) scale(-1,1)"><title>Sheet.9</title><path d="M18,589.5c7.5,0,13.5,10.1,13.5,22.5c0,9.9,3.8,18,8.4,18l0,0" class="st1"/></g><g id="shape10-14" transform="translate(11.68,-54.36)"><title>Sheet.10</title><desc>master</desc><rect width="39.6" height="12.3" x="-18" y="617.7" class="st2"/><text class="st3 st4" transform="matrix(1 0 0 1 -13.2 626.86)">master</text></g><g id="shape12-17" transform="translate(0,-12.22)"><title>Sheet.12</title><desc>feature/8150</desc><rect width="72" height="12.3" x="-18" y="617.7" class="st2"/><text class="st3 st5" transform="matrix(1 0 0 1 -11.75 627.0101)">feature/8150</text></g><g id="shape14-20" transform="translate(221.36,-102.22)"><title>Sheet.14</title><desc>release/delivery/v1.0.2</desc><rect width="111.6" height="12.3" x="-18" y="617.7" class="st2"/><text class="st3 st5" transform="matrix(1 0 0 1 -13.79 627.0101)">release/delivery/v1.0.2</text></g><g id="shape15-23" transform="translate(91.2656,-16.625)"><title>Sheet.15</title><ellipse cx="-14.8" cy="626.6" class="st6" rx="3.2" ry="3.4"/></g><g id="shape16-25" transform="translate(125.016,-16.625)"><title>Sheet.16</title><ellipse cx="-14.8" cy="626.6" class="st6" rx="3.2" ry="3.4"/></g><g id="shape17-27" transform="translate(149.766,-16.625)"><title>Sheet.17</title><ellipse cx="-14.8" cy="626.6" class="st6" rx="3.2" ry="3.4"/></g><g id="shape18-29" transform="translate(169.031,-57.125)"><title>Sheet.18</title><ellipse cx="-14.8" cy="626.6" class="st7" rx="3.2" ry="3.4"/></g><g id="shape22-31" transform="translate(99,0)"><title>Sheet.22</title><desc>commits</desc><rect width="39.6" height="20" x="-18" y="610" class="st2"/><text class="st8 st9" transform="matrix(1 0 0 1 -12.84 622.4)">commits</text></g><g id="shape23-34" transform="translate(153.6,-60.5)"><title>Sheet.23</title><desc>merge</desc><rect width="39.6" height="20" x="-18" y="610" class="st2"/><text class="st8 st9" transform="matrix(1 0 0 1 -9.09 622.4)">merge</text></g></g><g id="shape25-37" transform="translate(223.05,-576)"><title>Sheet.25</title><path d="M116.9,589.5H3.9c-7.5,0-13.5,10.1-13.5,22.5c0,9.9-3.8,18-8.4,18c0,0,0,0,0,0" class="st1"/></g></g></g></svg>