<svg xmlns="http://www.w3.org/2000/svg" xmlns:xlink="http://www.w3.org/1999/xlink" id="Layer_1" x="0" y="0" version="1.1" viewBox="0 0 400 140" xml:space="preserve" style="enable-background:new 0 0 400 140"><style type="text/css">.st0{fill:#dedede}.st1{fill:#eaeaea}.st2{fill:#fff}.st3{fill:#3899c5}.st4{fill:#58b6da}.st5{fill:#1881ce}.st6{fill:#0271c5}.st7{fill:#797979}</style><g><title>a3g-logo</title><path id="path9" d="M200,8c-34.8,0-63,28.2-63,63s28.2,63,63,63s63-28.2,63-63S234.8,8,200,8z M200,130.1 c-32.6,0-59.1-26.5-59.1-59.1s26.5-59.1,59.1-59.1s59.1,26.5,59.1,59.1C259.1,103.6,232.7,130.1,200,130.1 C200,130.1,200,130.1,200,130.1z" class="st0"/><circle id="circle11" cx="200" cy="71" r="59.1" class="st1"/><polygon id="polygon13" points="189.6 52.2 196.7 56.2 200 58 200 55.3 200 15.9" class="st0"/><polygon id="polygon15" points="203.3 85.8 200.3 84.1 200 84 200 84.3 200 86.8 200 126.1 210.4 89.8" class="st0"/><polygon id="polygon17" points="210.4 52.2 203.3 56.2 200 58 200 55.3 200 15.9" class="st2"/><polygon id="polygon19" points="196.7 85.8 199.7 84.1 200 84 200 84.3 200 86.8 200 126.1 189.6 89.8" class="st2"/><polygon id="polygon21" points="181.2 81.4 185.2 74.3 187 71 184.3 71 144.9 71" class="st0"/><polygon id="polygon23" points="214.8 67.7 213.1 70.7 213 71 213.3 71 215.8 71 255.1 71 218.8 60.6" class="st0"/><polygon id="polygon25" points="181.2 60.6 185.2 67.7 187 71 184.3 71 144.9 71" class="st2"/><polygon id="polygon27" points="214.8 74.3 213.1 71.3 213 71 213.3 71 215.8 71 255.1 71 218.8 81.4" class="st2"/><polygon id="polygon29" points="170.8 41.8 187 71 187.2 71 200 71" class="st0"/><polygon id="polygon31" points="170.8 100.2 187 71 187.2 71 200 71" class="st2"/><polygon id="polygon33" points="170.8 100.2 200 84 200 83.8 200 71" class="st0"/><polygon id="polygon35" points="229.2 100.2 200 84 200 83.8 200 71" class="st2"/><polygon id="polygon37" points="229.2 100.2 213 71 212.8 71 200 71" class="st0"/><polygon id="polygon39" points="229.2 41.8 213 71 212.8 71 200 71" class="st2"/><polygon id="polygon41" points="229.2 41.8 200 58 200 58.2 200 71" class="st0"/><polygon id="polygon43" points="170.8 41.8 200 58 200 58.2 200 71" class="st2"/><polygon id="polygon45" points="192.1 63.1 161.2 110.1 207.9 78.9 239.1 32.2" class="st3"/><polygon id="polygon47" points="161.2 110.1 207.9 78.9 200.2 71.2" class="st4"/><polygon id="polygon49" points="239.1 32.2 192.1 63.1 200.2 71.2" class="st5"/><polygon id="polygon51" points="239.1 32.2 207.9 78.9 199.8 70.8" class="st6"/><circle id="circle53" cx="200" cy="71" r="3.9" class="st7"/></g></svg>