<svg xmlns="http://www.w3.org/2000/svg" xmlns:xlink="http://www.w3.org/1999/xlink" id="Layer_1" x="0" y="0" version="1.1" viewBox="0 0 65 65" xml:space="preserve" style="enable-background:new 0 0 65 65"><style type="text/css">.st0{fill:#fff}.st1{fill:#5db4d7}.st2{fill:#7a7a7a}.st3{opacity:.15}</style><title>Best Practices for Cloud Applications</title><rect width="65" height="65" y="0" class="st0"/><g id="_1180_Grids"><g><g><path d="M53.7,19L53.7,19v-0.4c0-10-8.6-18.4-19.1-18.5c-0.3-0.4-6.3,0.1-6.3,0.1l0,0c-9.5,1.2-16.9,9.1-16.9,18.4 c0,0.3-1,7.6,6.4,13.7c3.4,3,6.9,11.1,7.4,13.4l0.4,0.8h13.8l0.4-0.8c0.5-2.3,4.2-10.4,7.4-13.3C54.6,26.2,53.7,19.3,53.7,19z" class="st1"/><rect width="13.8" height="4.4" x="25.8" y="51.2" class="st2"/><polygon points="30.1 65 35.2 65 39.5 60.4 25.8 60.4" class="st2"/><g class="st3"><path d="M34.5,0.1c-0.3-0.4-6.3,0.1-6.3,0.1c-9.5,1.2-16.9,9.1-16.9,18.4c0,0.3-0.9,6.6,5.1,12.5L44.6,3 C41.5,1.1,38.1,0.2,34.5,0.1z" class="st0"/></g></g><path d="M22.7,14.2c0.2,0,0.3,0,0.5,0C22,11.9,23,9,25.3,7.8s5.3-0.2,6.5,2.2c0.2,0.5,0.4,1,0.5,1.6 c1.8-2,4.8-2.1,6.8-0.4c1,0.9,1.5,2.1,1.6,3.3c2.5-0.9,5.3,0.4,6.2,2.9c0.9,2.5-0.4,5.3-2.9,6.2c-0.5,0.2-1.1,0.3-1.7,0.3H22.7 c-2.7,0-4.8-2.2-4.8-4.8S20,14.2,22.7,14.2L22.7,14.2z" class="st0"/></g></g></svg>