<svg xmlns="http://www.w3.org/2000/svg" xmlns:svg="http://www.w3.org/2000/svg" xmlns:xlink="http://www.w3.org/1999/xlink" id="Layer_1" x="0" y="0" version="1.1" viewBox="0 0 216 216" xml:space="preserve" style="enable-background:new 0 0 216 216"><style type="text/css">.st0{stroke:#fff;stroke-width:1.5;stroke-miterlimit:3}.st0,.st1{fill:#fff}.st2{fill:#828293}.st3{fill:none}.st4{fill:#666}.st5{fill:none;stroke:#078431;stroke-width:6;stroke-miterlimit:10}</style><title id="title3356">Document (stackable)</title><g id="shape62-3"><title id="title3359">Sheet.62</title><path id="path3361" d="M137.5,9.2H29.1v197.5h157.9V58.6L137.5,9.2L137.5,9.2z" class="st0"/></g><g id="shape63-5"><title id="title3364">Sheet.63</title><path id="path3366" d="M137.5,9.2H29.1v197.5h157.9V58.6L137.5,9.2L137.5,9.2z" class="st1"/></g><title id="title3369">Sheet.64</title><path id="path3371" d="M137.5,9.2H29.1v197.5h157.9V58.6L137.5,9.2L137.5,9.2z M177.2,196.6h-138V18.9h93.7v44.3h44.3L177.2,196.6L177.2,196.6z" class="st2"/><g id="shape69-17"><title id="title3394">_x3C_Slice_x3E__179_</title><rect id="rect3396" width="157.9" height="197.1" x="29.1" y="9.2" class="st3"/></g><title id="title3399">Sheet.70</title><title id="title3404">Sheet.71</title><title id="title3409">Sheet.72</title><title id="title3414">Sheet.73</title><title id="title3419">Checkmark / success.11017</title><title id="title3432">Checkmark / success.11024</title><g><g id="rect3406"><rect width="17.5" height="18" x="60" y="100" class="st1"/><path d="M60,100c5.5-0.4,11.4-0.8,17.5-1c0.5,0,0.9,0.4,1,0.9l0,0.1c0.1,3,0.1,6,0.2,9c0,1.5,0,3,0,4.5l0,4.5 c0,0.7-0.5,1.2-1.2,1.2h0l-8.8-0.1c-2.9-0.1-5.8-0.1-8.8-0.2l-0.1,0c-0.5,0-0.9-0.5-0.9-1c0.1-3.1,0.2-6.2,0.4-9.3L60,100z M60,100l0.6,9.3c0.2,3,0.3,5.9,0.4,8.8l-1-1c2.9-0.1,5.8-0.1,8.8-0.2l8.8-0.1l-1.2,1.2l0-4.5c0-1.5,0-3,0-4.5c0.1-3,0.1-6,0.2-9 l1,1C71.9,100.8,66.2,100.4,60,100z" class="st4"/></g><g><path d="M88.3,106.9l81.7,4l-81.7,4c-2.2,0.1-4.1-1.6-4.2-3.8c-0.1-2.2,1.6-4.1,3.8-4.2 C88.1,106.9,88.2,106.9,88.3,106.9z" class="st4"/></g></g><path d="M52,101.4c0,0,9.3,5.2,15.3,9.4c11.4-37,24.6-39.4,24.6-39.4" class="st5"/><g><g id="rect3406_1_"><rect width="17.5" height="18" x="58.9" y="128.2" class="st1"/><path d="M58.9,128.2c5.5-0.4,11.4-0.8,17.5-1c0.5,0,0.9,0.4,1,0.9l0,0.1c0.1,3,0.1,6,0.2,9c0,1.5,0,3,0,4.5l0,4.5 c0,0.7-0.5,1.2-1.2,1.2h0l-8.8-0.1c-2.9-0.1-5.8-0.1-8.8-0.2l-0.1,0c-0.5,0-0.9-0.5-0.9-1c0.1-3.1,0.2-6.2,0.4-9.3L58.9,128.2z M58.9,128.2l0.6,9.3c0.2,3,0.3,5.9,0.4,8.8l-1-1c2.9-0.1,5.8-0.1,8.8-0.2l8.8-0.1l-1.2,1.2l0-4.5c0-1.5,0-3,0-4.5 c0.1-3,0.1-6,0.2-9l1,1C70.8,129,65.1,128.6,58.9,128.2z" class="st4"/></g><g><path d="M87.2,135.2l81.7,4l-81.7,4c-2.2,0.1-4.1-1.6-4.2-3.8c-0.1-2.2,1.6-4.1,3.8-4.2 C86.9,135.1,87.1,135.1,87.2,135.2z" class="st4"/></g></g><g><g id="rect3406_3_"><rect width="17.5" height="18" x="58.9" y="157.6" class="st1"/><path d="M58.9,157.6c5.5-0.4,11.4-0.8,17.5-1c0.5,0,0.9,0.4,1,0.9l0,0.1c0.1,3,0.1,6,0.2,9c0,1.5,0,3,0,4.5l0,4.5 c0,0.7-0.5,1.2-1.2,1.2h0l-8.8-0.1c-2.9-0.1-5.8-0.1-8.8-0.2l-0.1,0c-0.5,0-0.9-0.5-0.9-1c0.1-3.1,0.2-6.2,0.4-9.3L58.9,157.6z M58.9,157.6l0.6,9.3c0.2,3,0.3,5.9,0.4,8.8l-1-1c2.9-0.1,5.8-0.1,8.8-0.2l8.8-0.1l-1.2,1.2l0-4.5c0-1.5,0-3,0-4.5 c0.1-3,0.1-6,0.2-9l1,1C70.8,158.4,65.1,157.9,58.9,157.6z" class="st4"/></g><g><path d="M87.2,164.5l81.7,4l-81.7,4c-2.2,0.1-4.1-1.6-4.2-3.8s1.6-4.1,3.8-4.2C86.9,164.5,87.1,164.5,87.2,164.5z" class="st4"/></g></g></svg>