<svg xmlns="http://www.w3.org/2000/svg" xmlns:xlink="http://www.w3.org/1999/xlink" style="enable-background:new 0 0 102.2 110.8" id="Layer_1" x="0" y="0" version="1.1" viewBox="0 0 102.2 110.8" xml:space="preserve"><style type="text/css">.st0{fill:#0072c6}.st1{opacity:.17}.st1,.st2,.st3,.st4,.st5,.st6{fill:#fff;enable-background:new}.st2{opacity:.72}.st3{opacity:.28}.st4{opacity:.86}.st5{opacity:.31}.st6{opacity:.63}.st7{fill:#1b348e}.st8{opacity:.59;fill:#fff;enable-background:new}</style><title>Artboard 30</title><g id="_1180_Grids"><g><polyline points="23.3 0 102.2 27 102.2 65.6 86.8 110.8 0 93.4 23.3 0" class="st0"/><path d="M86.8,110.8c-0.3-0.8,0-58.3,0-58.3l15.4,13.1L86.8,110.8z" class="st1"/><polygon points="102.2 27 102.2 65.6 86.8 52.5" class="st2"/><polygon points="23.3 0 102.2 27 86.8 52.5" class="st2"/><polygon points="28.7 44.5 86.8 52.5 0 93.4" class="st3"/><polygon points="28.7 44.5 23.3 0 86.8 52.5" class="st4"/><polygon points="86.8 52.5 102.2 27 74.9 17.6" class="st5"/><polygon points="0 93.4 58.7 96 86.8 52.5" class="st6"/><polygon points="86.8 110.8 58.7 96 86.8 52.5" class="st0"/><polygon points="0 93.4 86.8 110.8 58.7 96" class="st7"/><polygon points="28.7 44.5 0 93.4 23.3 0" class="st8"/></g></g></svg>