<svg xmlns="http://www.w3.org/2000/svg" id="Layer_1" data-name="Layer 1" viewBox="0 0 64 64"><defs><style>.cls-1{fill:#ffbe0b}.cls-2{fill:#ffd214}.cls-3{fill:#bad62f}.cls-4{fill:#7dba01}.cls-5{fill:#ba1418}.cls-6{fill:#de5901}.cls-7{fill:#ff8e01}.cls-8{fill:#a1a1a1}.cls-9{fill:#919191}.cls-10{fill:#fff}.cls-11{fill:#eaeaea}</style></defs><title>3Artboard 1 copy 10</title><rect width="4" height="10" x="30" y="8.69" class="cls-1"/><rect width="4" height="10" x="15.22" y="14.07" class="cls-2" transform="translate(-8.23 15.53) rotate(-40)"/><rect width="4" height="10" x="7.35" y="27.7" class="cls-3" transform="translate(-24.47 36.23) rotate(-80)"/><rect width="4" height="10" x="10.08" y="43.19" class="cls-4" transform="translate(-23.61 82.75) rotate(-120)"/><rect width="4" height="10" x="49.92" y="43.19" class="cls-5" transform="translate(119.61 27.32) rotate(120)"/><rect width="4" height="10" x="52.65" y="27.7" class="cls-6" transform="matrix(0.17, 0.98, -0.98, 0.17, 77.36, -26.8)"/><rect width="4" height="10" x="44.78" y="14.07" class="cls-7" transform="translate(23.21 -25.61) rotate(40)"/><polygon points="56.49 22.55 29 31.5 32 36.69 56.49 22.55" class="cls-8"/><polygon points="56.49 22.55 35 41.89 32 36.69 56.49 22.55" class="cls-9"/><circle cx="32" cy="36.69" r="8" class="cls-8" transform="translate(-14.06 20.92) rotate(-30)"/><path d="M32.52,34.76a2,2,0,0,0-2.45,1.41l3.86,1A2,2,0,0,0,32.52,34.76Z" class="cls-10"/><path d="M31.48,38.62a2,2,0,0,0,2.45-1.41l-3.86-1A2,2,0,0,0,31.48,38.62Z" class="cls-11"/><path d="M2,36.69A30,30,0,1,1,53.2,57.9l1.41,1.41a32,32,0,1,0-45.23,0L10.8,57.9A29.89,29.89,0,0,1,2,36.69Z" class="cls-9"/></svg>