<svg xmlns="http://www.w3.org/2000/svg" id="Layer_1" width="443.79" height="316.67" data-name="Layer 1" viewBox="0 0 443.79 316.67"><defs><style>text{font-family:segoe-ui_normal,Segoe UI,Segoe,Segoe WP,Helvetica Neue,Helvetica,sans-serif}.cls-1{fill:none;stroke:#afafaf;stroke-miterlimit:10;stroke-width:6px}.cls-2{fill:#afafaf}.cls-3{fill:#3fa0ec}.cls-4{font-size:18px}.cls-4,.cls-8{fill:#fff}.cls-5{fill:#8fb6cc}.cls-6{font-size:14.87px;fill:#213d47}.cls-7{fill:#2a3282}.cls-9{font-size:18.04px;fill:#0070c0}.cls-10{letter-spacing:-.03em}</style></defs><title>cqrs-logical</title><line x1="89.46" x2="345" y1="232.67" y2="228.83" class="cls-1"/><polygon points="91.76 240.11 78.7 232.83 91.54 225.16 91.76 240.11" class="cls-2"/><line x1="366" x2="366" y1="71.19" y2="185.43" class="cls-1"/><polygon points="358.52 183.24 366 196.19 373.48 183.24 358.52 183.24" class="cls-2"/><rect width="115.75" height="71.66" x="124.06" y="195" class="cls-3" rx="8" ry="8"/><text class="cls-4" transform="translate(157.87 223.98)">Query<tspan x="-1.47" y="21.6">Model</tspan></text><line x1="76" x2="331.54" y1="37.83" y2="33.99" class="cls-1"/><polygon points="329.46 41.5 342.3 33.83 329.24 26.54 329.46 41.5" class="cls-2"/><path d="M240,184a4,4,0,0,1,4,4V438a4,4,0,0,1-4,4H180a4,4,0,0,1-4-4V188a4,4,0,0,1,4-4h60m0-4H180a8,8,0,0,0-8,8V438a8,8,0,0,0,8,8h60a8,8,0,0,0,8-8V188a8,8,0,0,0-8-8Z" class="cls-5" transform="translate(-172 -179.81)"/><text class="cls-6" transform="translate(15.22 131.65) scale(1.21 1)">Client</text><rect width="115.75" height="71.66" x="124.06" class="cls-3" rx="8" ry="8"/><text class="cls-4" transform="translate(140.62 28.98)">Command<tspan x="15.78" y="21.6">Model</tspan></text><path d="M512.16,228.77V239c0,4.76,9.53,10.06,22.07,11h8.29c12.54-.89,22.07-5.11,22.07-10.06v-48.2c0-5.3-11.84-10.42-26.32-10.42s-26.13,4.76-26.13,10.25v21.53l0,15.7Z" class="cls-7" transform="translate(-172 -179.81)"/><ellipse cx="366.36" cy="11.67" class="cls-8" rx="20.5" ry="6.5"/><path d="M512.16,423.77V434c0,4.76,9.53,10.06,22.07,11h8.29c12.54-.89,22.07-5.11,22.07-10.06v-48.2c0-5.3-11.84-10.42-26.32-10.42s-26.13,4.76-26.13,10.25v21.53l0,15.7Z" class="cls-7" transform="translate(-172 -179.81)"/><ellipse cx="366.36" cy="206.67" class="cls-8" rx="20.5" ry="6.5"/><rect width="107.94" height="49.19" x="312.39" y="102.1" class="cls-3" rx="8" ry="8"/><text class="cls-4" transform="translate(344.65 130.64)">Event</text><text class="cls-9" transform="translate(258.71 20.61)">Write</text><text class="cls-9" transform="translate(260.48 213.61)"><tspan class="cls-10">R</tspan><tspan x="10.26" y="0">ead</tspan></text><text class="cls-9" transform="translate(317.94 287.61)">Materialized<tspan x="29.82" y="21.65">View</tspan></text><text class="cls-9" transform="translate(385.57 183.61)">Update</text></svg>