<svg xmlns="http://www.w3.org/2000/svg" xmlns:svg="http://www.w3.org/2000/svg" xmlns:xlink="http://www.w3.org/1999/xlink" id="svg2" width="200" height="170" style="font-size:12px;overflow:visible;color-interpolation-filters:sRGB;fill:none;fill-rule:evenodd;stroke-linecap:square;stroke-miterlimit:3" class="st9" version="1.1" viewBox="0 0 160.001 136" xml:space="preserve"><metadata id="metadata96"/><style id="style4" type="text/css">.st1{fill:#5a9bd7;stroke:#000;stroke-linecap:butt;stroke-width:.5}.st2{fill:#cbf5d8;stroke-linecap:round;stroke-linejoin:round;stroke-width:.75}.st2,.st3,.st4{stroke:#000}.st3{marker-start:url(#mrkr1-15);stroke-linecap:round;stroke-linejoin:round;stroke-width:.75}.st4{fill:#000;fill-opacity:1;stroke-opacity:1;stroke-width:.22935779816514}.st5{fill:none;stroke:none;stroke-linecap:round;stroke-linejoin:round;stroke-width:.75}.st6{fill:#000;font-family:Segoe Print;font-size:.666664em}.st7,.st8{stroke:#000}.st7{marker-end:url(#mrkr1-32);stroke-linecap:round;stroke-linejoin:round;stroke-width:.25}.st8{fill:#000;fill-opacity:1;stroke-opacity:1;stroke-width:.1219512195122}.st9{fill:none;fill-rule:evenodd;font-size:12px;overflow:visible;stroke-linecap:square;stroke-miterlimit:3}</style><defs id="Markers"><g id="lend1"><path style="fill:none;stroke-linecap:round;stroke-linejoin:round" id="path8" d="M 1,-1 0,0 1,1"/></g><marker id="mrkr1-15" class="st4" markerUnits="strokeWidth" orient="auto" overflow="visible" style="overflow:visible;fill:#000;fill-opacity:1;stroke:#000;stroke-width:.22935779;stroke-opacity:1"><use id="use11" width="100%" height="100%" x="0" y="0" transform="scale(4.36,4.36)" xlink:href="#lend1"/></marker><marker id="mrkr1-32" class="st8" markerUnits="strokeWidth" orient="auto" overflow="visible" style="overflow:visible;fill:#000;fill-opacity:1;stroke:#000;stroke-width:.12195122;stroke-opacity:1"><use id="use14" width="100%" height="100%" x="0" y="0" transform="scale(-8.2,-8.2)" xlink:href="#lend1"/></marker></defs><g id="layer1" transform="translate(16.804783,17.371912)" style="display:inline"><g id="g4203" transform="translate(4.8209933,-1.1127829)"><rect id="rect4370" width="150.359" height="133.775" x="-16.805" y="-15.147" rx="1.6" ry="1.6" style="font-size:12px;overflow:visible;color-interpolation-filters:sRGB;fill:#fff;fill-opacity:1;fill-rule:evenodd;stroke:none;stroke-width:.40000135;stroke-linecap:round;stroke-miterlimit:4;stroke-dasharray:none;stroke-dashoffset:0;stroke-opacity:1"/><g id="shape93-2" transform="matrix(1.25,0,0,1.25,86.656375,-49.027691)"><title id="title24">Sheet.93</title><path style="fill:#5a9bd7;stroke:#000;stroke-width:.40000001;stroke-linecap:butt" id="path26" d="m 9.01,85.96 c -3.54,0 -6.42,-0.87 -6.42,-1.94 0,-1.06 2.88,-1.92 6.42,-1.92 3.53,0 6.39,0.85 6.39,1.92 0,1.07 -2.86,1.94 -6.39,1.94 z M 0,97.13 l 0,3.5 c 0,1.64 3.28,3.45 7.56,3.74 l 2.88,0 C 14.72,104.09 18,102.59 18,100.94 L 18,84.41 C 18,82.58 13.95,80.84 8.99,80.84 4.03,80.84 0,82.49 0,84.33 l 0,7.37 0,5.43 0,0 z" class="st1"/></g><g id="shape94-4" transform="matrix(1.25,0,0,1.25,86.656375,-110.44157)"><title id="title29">Sheet.94</title><path style="fill:#5a9bd7;stroke:#000;stroke-width:.40000001;stroke-linecap:butt" id="path31" d="m 9.01,85.96 c -3.54,0 -6.42,-0.87 -6.42,-1.94 0,-1.06 2.88,-1.92 6.42,-1.92 3.53,0 6.39,0.85 6.39,1.92 0,1.07 -2.86,1.94 -6.39,1.94 z M 0,97.13 l 0,3.5 c 0,1.64 3.28,3.45 7.56,3.74 l 2.88,0 C 14.72,104.09 18,102.59 18,100.94 L 18,84.41 C 18,82.58 13.95,80.84 8.99,80.84 4.03,80.84 0,82.49 0,84.33 l 0,7.37 0,5.43 0,0 z" class="st1"/></g><g id="shape96-6" transform="matrix(1.25,0,0,1.25,-11.781135,-106.56557)"><title id="title34">Sheet.96</title><rect style="fill:#cbf5d8;stroke:#000;stroke-width:.60000002;stroke-linecap:round;stroke-linejoin:round" id="rect36" width="22.5" height="23.53" x="0" y="80.836" class="st2"/></g><g id="shape97-8" transform="matrix(1.25,0,0,1.25,-11.781135,-52.484066)"><title id="title39">Sheet.97</title><rect style="fill:#cbf5d8;stroke:#000;stroke-width:.60000002;stroke-linecap:round;stroke-linejoin:round" id="rect41" width="22.5" height="23.53" x="0" y="80.836" class="st2"/></g><g id="shape98-10" transform="matrix(-1.25,0,0,-1.25,81.031378,137.47356)"><title id="title44">Sheet.98</title><path style="stroke:#000;stroke-width:.60000002;stroke-linecap:round;stroke-linejoin:round;marker-start:url(#mrkr1-15)" id="path46" d="m 0,104.37 45,0" class="st3"/></g><g id="shape99-16" transform="matrix(1.25,0,0,1.25,18.816503,-122.97944)"><title id="title49">Sheet.99</title><desc id="desc51">Write</desc><rect style="fill:none;stroke:none;stroke-width:.75;stroke-linecap:round;stroke-linejoin:round" id="rect53" width="45.544" height="13.5" x="0" y="90.866" class="st5"/><text style="font-size:7.99996805px;font-family:'Segoe Print';fill:#000" id="text55" x="11.57" y="100.02" class="st6">Write</text></g><g id="shape100-19" transform="matrix(1.25,0,0,1.25,25.847753,-67.190566)"><title id="title58">Sheet.100</title><desc id="desc60">Read</desc><rect style="fill:none;stroke:none;stroke-width:.75;stroke-linecap:round;stroke-linejoin:round" id="rect62" width="45.544" height="13.5" x="0" y="90.866" class="st5"/><text style="font-size:7.99996805px;font-family:'Segoe Print';fill:#000" id="text64" x="12.78" y="100.02" class="st6">Read</text></g><g id="shape101-22" transform="matrix(1.25,0,0,1.25,20.732128,-64.865816)"><title id="title67">Sheet.101</title><path style="stroke:#000;stroke-width:.60000002;stroke-linecap:round;stroke-linejoin:round;marker-start:url(#mrkr1-15)" id="path69" d="m 0,104.37 42.84,0" class="st3"/></g><g style="stroke-width:.40000135;stroke-miterlimit:4;stroke-dasharray:none" id="shape104-27" transform="matrix(1.25,0,0,1.25,114.78138,-63.674941)"><title id="title72">Sheet.104</title><path style="stroke:#000;stroke-width:.32000107;stroke-linecap:round;stroke-linejoin:round;stroke-miterlimit:4;stroke-dasharray:none;marker-end:url(#mrkr1-32)" id="path74" d="m 0,56.55 a 27,13.5 90 0 1 13.5,27 A 20.8125,13.5 90 0 1 0,104.37" class="st7"/></g><g id="shape106-36" transform="matrix(1.25,0,0,1.25,-14.593622,-12.935191)"><title id="title86">Sheet.106</title><desc id="desc88">CQRS</desc><rect style="fill:none;stroke:none;stroke-width:.75;stroke-linecap:round;stroke-linejoin:round" id="rect90" width="117" height="23.53" x="0" y="80.836" class="st5"/><text style="font-size:7.99996805px;font-family:'Segoe Print';fill:#000" id="text92" x="47" y="95" class="st6">CQRS</text></g></g></g></svg>