<svg xmlns="http://www.w3.org/2000/svg" id="Layer_1" width="678" height="212.1" data-name="Layer 1" viewBox="0 0 678 212.1"><defs><style>text{font-family:segoe-ui_normal,Segoe UI,Segoe,Segoe WP,Helvetica Neue,Helvetica,sans-serif}.cls-1{fill:none;stroke:#afafaf;stroke-miterlimit:10;stroke-width:6px}.cls-2{fill:#afafaf}.cls-3{fill:#3fa0ec}.cls-4,.cls-5{font-size:18px;fill:#fff}.cls-5{font-size:17.98px}</style></defs><title>event-driven</title><line x1="191.53" x2="244.77" y1="105.95" y2="105.95" class="cls-1"/><polygon points="242.58 113.43 255.53 105.95 242.58 98.47 242.58 113.43" class="cls-2"/><rect width="192" height="60.1" x="486" class="cls-3" rx="8" ry="8"/><text class="cls-4" transform="translate(513.56 34)">Event Consumers</text><rect width="192" height="60.1" x="486" y="76" class="cls-3" rx="8" ry="8"/><text class="cls-4" transform="translate(513.56 110)">Event Consumers</text><rect width="192" height="60.1" x="486" y="152" class="cls-3" rx="8" ry="8"/><text class="cls-4" transform="translate(513.56 186)">Event Consumers</text><line x1="422.53" x2="475.77" y1="105.95" y2="105.95" class="cls-1"/><polygon points="473.58 113.42 486.53 105.94 473.58 98.47 473.58 113.42" class="cls-2"/><line x1="422.53" x2="478.44" y1="105.95" y2="42.05" class="cls-1"/><polygon points="482.63 48.62 485.53 33.95 471.37 38.77 482.63 48.62" class="cls-2"/><line x1="422.53" x2="478.66" y1="105.95" y2="173.66" class="cls-1"/><polygon points="471.51 176.75 485.53 181.95 483.02 167.2 471.51 176.75" class="cls-2"/><rect width="192" height="60.1" y="76" class="cls-3" rx="8" ry="8"/><text class="cls-5" transform="translate(32.33 110.01)">Event Producers</text><rect width="167.53" height="40" x="255.23" y="86.05" class="cls-3" rx="8" ry="8"/><text class="cls-4" transform="translate(277.91 110)">Event Ingestion</text></svg>