<svg xmlns="http://www.w3.org/2000/svg" id="Layer_1" width="728" height="385.19" data-name="Layer 1" viewBox="0 0 728 385.19"><defs><style>text{font-family:segoe-ui_normal,Segoe UI,Segoe,Segoe WP,Helvetica Neue,Helvetica,sans-serif}.cls-1{fill:#3fa0ec}.cls-2{font-size:16px}.cls-10,.cls-2,.cls-23,.cls-24,.cls-27,.cls-6{fill:#fff}.cls-3{letter-spacing:-.03em}.cls-4{fill:#8fb6cc}.cls-5{font-size:19.34px;fill:#213d47}.cls-6{font-size:15.58px}.cls-15,.cls-16,.cls-17,.cls-21,.cls-7{fill:none}.cls-7{stroke:#afafaf;stroke-width:6px}.cls-11,.cls-12,.cls-13,.cls-14,.cls-15,.cls-16,.cls-17,.cls-21,.cls-7{stroke-miterlimit:10}.cls-8{fill:#afafaf}.cls-9{fill:#217da5}.cls-10{font-size:18.77px}.cls-11{fill:red}.cls-11,.cls-12,.cls-13,.cls-14{stroke:#fff}.cls-12{fill:#f9c943}.cls-13{fill:#39b54a}.cls-14{fill:#88bee2}.cls-15,.cls-16,.cls-17{stroke:#0070c0;stroke-width:2px}.cls-16{stroke-dasharray:5.91 5.91}.cls-17{stroke-dasharray:5.88 5.88}.cls-18,.cls-23{font-size:18.04px}.cls-18,.cls-20{fill:#0070c0}.cls-19{font-size:15px;fill:#383838}.cls-21{stroke:#8e8e8e;stroke-width:3px}.cls-22{fill:#8e8e8e}.cls-24{font-size:15.61px}.cls-25{letter-spacing:-.03em}.cls-26{letter-spacing:0}.cls-27{font-size:14px}</style></defs><title>microservices-logical</title><rect width="105" height="57" x="623" y="105.14" class="cls-1" rx="8" ry="8"/><text class="cls-2" transform="translate(648.29 127.55)"><tspan class="cls-3">R</tspan><tspan x="9.1" y="0">emote</tspan><tspan x="2.34" y="19.2">Service</tspan></text><path d="M105,114a4,4,0,0,1,4,4V448a4,4,0,0,1-4,4H45a4,4,0,0,1-4-4V118a4,4,0,0,1,4-4h60m0-4H45a8,8,0,0,0-8,8V448a8,8,0,0,0,8,8h60a8,8,0,0,0,8-8V118a8,8,0,0,0-8-8Z" class="cls-4" transform="translate(-37 -72)"/><text class="cls-5" transform="translate(15.22 208.99) scale(0.93 1)">Client</text><rect width="73.04" height="52.03" x="116" y="332.15" class="cls-1" rx="8" ry="8"/><text class="cls-6" transform="translate(136.82 361.59) scale(0.97 1)">CDN</text><line x1="76" x2="204.24" y1="171" y2="171" class="cls-7"/><polygon points="202.05 178.48 215 171 202.05 163.52 202.05 178.48" class="cls-8"/><rect width="214" height="60" x="359.68" y="36.31" class="cls-9" rx="8" ry="8"/><text class="cls-10" transform="translate(456.71 70.43) scale(0.96 1)">Service</text><polygon points="411.28 42.23 383.48 42.23 369.58 66.31 383.48 90.38 411.28 90.38 425.18 66.31 411.28 42.23" class="cls-11"/><rect width="214" height="60" x="359.68" y="103.64" class="cls-9" rx="8" ry="8"/><text class="cls-10" transform="translate(456.71 137.76) scale(0.96 1)">Service</text><polygon points="411.28 109.56 383.48 109.56 369.58 133.64 383.48 157.72 411.28 157.72 425.18 133.64 411.28 109.56" class="cls-12"/><rect width="214" height="60" x="359.68" y="170.97" class="cls-9" rx="8" ry="8"/><text class="cls-10" transform="translate(456.71 205.09) scale(0.96 1)">Service</text><polygon points="411.28 176.9 383.48 176.9 369.58 200.97 383.48 225.05 411.28 225.05 425.18 200.97 411.28 176.9" class="cls-13"/><rect width="214" height="60" x="359.68" y="238.31" class="cls-9" rx="8" ry="8"/><text class="cls-10" transform="translate(456.71 272.43) scale(0.96 1)">Service</text><polygon points="411.28 244.23 383.48 244.23 369.58 268.31 383.48 292.38 411.28 292.38 425.18 268.31 411.28 244.23" class="cls-14"/><polyline points="596.68 304 596.68 307 593.68 307" class="cls-15"/><line x1="587.77" x2="342.63" y1="307" y2="307" class="cls-16"/><polyline points="339.68 307 336.68 307 336.68 304" class="cls-15"/><line x1="336.68" x2="336.68" y1="298.12" y2="6.94" class="cls-17"/><polyline points="336.68 4 336.68 1 339.68 1" class="cls-15"/><line x1="345.59" x2="590.73" y1="1" y2="1" class="cls-16"/><polyline points="593.68 1 596.68 1 596.68 4" class="cls-15"/><line x1="596.68" x2="596.68" y1="9.88" y2="301.06" class="cls-17"/><text class="cls-18" transform="translate(413.03 26.42)">Microservices</text><text class="cls-19" transform="translate(347.66 365.11)">Management</text><rect width="110" height="44.75" x="486.68" y="339.44" class="cls-15"/><text class="cls-19" transform="translate(518.42 356.11)">Service<tspan x="-8.56" y="18">Discovery</tspan></text><line x1="449.01" x2="476.34" y1="362" y2="361.9" class="cls-15"/><polygon points="474.9 366.89 483.52 361.87 474.86 356.92 474.9 366.89" class="cls-20"/><line x1="541.68" x2="541.68" y1="331.82" y2="310" class="cls-15"/><polygon points="546.67 330.37 541.68 339 536.7 330.37 546.67 330.37" class="cls-20"/><line x1="391.68" x2="391.68" y1="339" y2="317.18" class="cls-15"/><polygon points="396.67 318.63 391.68 310 386.69 318.63 396.67 318.63" class="cls-20"/><rect width="110" height="44.75" x="336.68" y="339.44" class="cls-15"/><line x1="310" x2="354.52" y1="171" y2="262.83" class="cls-21"/><polygon points="348.84 263.79 358 270 358.8 258.96 348.84 263.79" class="cls-22"/><line x1="574" x2="612.24" y1="134" y2="134" class="cls-7"/><polygon points="610.05 141.48 623 134 610.05 126.52 610.05 141.48" class="cls-8"/><line x1="310" x2="354.69" y1="171" y2="73.24" class="cls-21"/><polygon points="359.05 77.02 358 66 348.98 72.42 359.05 77.02" class="cls-22"/><line x1="310" x2="353.41" y1="171" y2="141.48" class="cls-21"/><polygon points="355.19 146.97 360 137 348.96 137.81 355.19 146.97" class="cls-22"/><line x1="310" x2="353.17" y1="171" y2="196.9" class="cls-21"/><polygon points="348.93 200.81 360 201 354.63 191.32 348.93 200.81" class="cls-22"/><rect width="95" height="260" x="215.36" y="38" class="cls-1" rx="8" ry="8"/><text class="cls-23" transform="translate(249.62 151.27)">API<tspan x="-20.75" y="21.65">Gateway</tspan></text><rect width="86.72" height="52.03" x="219.5" y="332.15" class="cls-1" rx="8" ry="8"/><text class="cls-24" transform="translate(244.21 352.23)"><tspan class="cls-25">S<tspan x="7.79" y="0" class="cls-26">tatic</tspan></tspan><tspan x="-8.96" y="18.73">Content</tspan></text><line x1="86.76" x2="116" y1="358.17" y2="358.17" class="cls-7"/><polygon points="88.95 365.65 76 358.17 88.95 350.69 88.95 365.65" class="cls-8"/><line x1="199.76" x2="219" y1="358.17" y2="358.17" class="cls-7"/><polygon points="201.95 365.65 189 358.17 201.95 350.69 201.95 365.65" class="cls-8"/><line x1="76" x2="95.24" y1="69.49" y2="69.49" class="cls-7"/><polygon points="93.05 76.97 106 69.49 93.05 62.01 93.05 76.97" class="cls-8"/><line x1="185" x2="204.24" y1="69.49" y2="69.49" class="cls-7"/><polygon points="202.05 76.97 215 69.49 202.05 62.01 202.05 76.97" class="cls-8"/><rect width="80" height="63.66" x="105.68" y="37.66" class="cls-1" rx="8" ry="8"/><text class="cls-27" transform="translate(122.25 64.16)">Identity<tspan x="-2.29" y="16.8">Provider</tspan></text></svg>