<svg xmlns="http://www.w3.org/2000/svg" id="Layer_1" width="786" height="353.13" data-name="Layer 1" viewBox="0 0 786 353.13"><defs><style>text{font-family:segoe-ui_normal,Segoe UI,Segoe,Segoe WP,Helvetica Neue,Helvetica,sans-serif}.cls-1,.cls-3{fill:none;stroke:#afafaf;stroke-width:6px}.cls-1{stroke-miterlimit:10}.cls-2{fill:#afafaf}.cls-3{stroke-linejoin:bevel}.cls-4{fill:#3fa0ec}.cls-5{font-size:18.04px}.cls-5,.cls-7{fill:#fff}.cls-6{letter-spacing:-.04em}.cls-11,.cls-7{font-size:18px}.cls-8{letter-spacing:-.03em}.cls-9{letter-spacing:-.04em}.cls-10{fill:#8fb6cc}.cls-11{fill:#213d47}</style></defs><title>n-tier-logical</title><line x1="561.76" x2="681" y1="209.38" y2="209.38" class="cls-1"/><polygon points="563.95 216.86 551 209.38 563.95 201.9 563.95 216.86" class="cls-2"/><line x1="538" x2="670.24" y1="36.38" y2="36.38" class="cls-1"/><polygon points="668.05 43.86 681 36.38 668.05 28.9 668.05 43.86" class="cls-2"/><line x1="537" x2="670.24" y1="109.38" y2="110.31" class="cls-1"/><polygon points="668 117.77 681 110.38 668.1 102.81 668 117.77" class="cls-2"/><line x1="537" x2="671.23" y1="272.87" y2="272.7" class="cls-3"/><polygon points="669.05 280.18 682 272.68 669.04 265.22 669.05 280.18" class="cls-2"/><line x1="561.76" x2="681" y1="143.38" y2="143.38" class="cls-1"/><polygon points="563.95 150.86 551 143.38 563.95 135.9 563.95 150.86" class="cls-2"/><line x1="290" x2="464.24" y1="272.38" y2="272.38" class="cls-1"/><polygon points="462.05 279.86 475 272.38 462.05 264.9 462.05 279.86" class="cls-2"/><rect width="76" height="352.75" x="214.5" y=".38" class="cls-4" rx="8" ry="8"/><text class="cls-5" transform="translate(234.45 169.75)"><tspan class="cls-6">W</tspan><tspan x="16.14" y="0">eb</tspan><tspan x="3.33" y="21.65">Tier</tspan></text><rect width="76" height="186" x="474.75" class="cls-4" rx="8" ry="8"/><text class="cls-7" transform="translate(485 86.01)">Middle<tspan x="5.7" y="21.6">Tier 1</tspan></text><rect width="76" height="158" x="474.75" y="193.78" class="cls-4" rx="8" ry="8"/><text class="cls-7" transform="translate(485 266.59)">Middle<tspan x="5.7" y="21.6">Tier 2</tspan></text><rect width="115.75" height="60.1" x="324.75" y="242.73" class="cls-4" rx="8" ry="8"/><text class="cls-7" transform="translate(339.75 276.59)">Messaging</text><rect width="61.75" height="109" x="585" y="121.38" class="cls-4" rx="8" ry="8"/><text class="cls-7" transform="translate(591.77 179.69)">Cache</text><line x1="290" x2="464.24" y1="72.38" y2="73.32" class="cls-1"/><polygon points="462.01 80.79 475 73.38 462.09 65.83 462.01 80.79" class="cls-2"/><rect width="105" height="73" x="681" class="cls-4" rx="8" ry="8"/><text class="cls-7" transform="translate(702.89 29.51)"><tspan class="cls-8">R</tspan><tspan x="10.24" y="0">emote</tspan><tspan x="2.64" y="21.6">Service</tspan></text><rect width="105" height="270" x="681" y="81.78" class="cls-4" rx="8" ry="8"/><text class="cls-7" transform="translate(714.98 220.58)">Data<tspan x="3.79" y="21.6">Tier</tspan></text><rect width="70" height="185.75" x="110.25" y="83.88" class="cls-4" rx="8" ry="8"/><text class="cls-7" transform="translate(126.99 180.71)"><tspan class="cls-9">W</tspan><tspan x="16.11" y="0">AF</tspan></text><line x1="180" x2="203.24" y1="176.76" y2="176.76" class="cls-1"/><polygon points="201.05 184.24 214 176.76 201.05 169.28 201.05 184.24" class="cls-2"/><path d="M75,133a4,4,0,0,1,4,4V472a4,4,0,0,1-4,4H15a4,4,0,0,1-4-4V137a4,4,0,0,1,4-4H75m0-4H15a8,8,0,0,0-8,8V472a8,8,0,0,0,8,8H75a8,8,0,0,0,8-8V137a8,8,0,0,0-8-8Z" class="cls-10" transform="translate(-7 -128.62)"/><text class="cls-11" transform="translate(15.22 179.83)">Client</text><line x1="76" x2="99.24" y1="176.76" y2="176.76" class="cls-1"/><polygon points="97.05 184.24 110 176.76 97.05 169.28 97.05 184.24" class="cls-2"/></svg>